Format : AVI
Format/Info : Audio Video Interleave
File size : 1.15 GiB
Duration : 1h 39mn
Overall bit rate : 1 646 Kbps
Writing library : VirtualDub build 32839/release

Video
ID : 0
Format : MPEG-4 Visual
Format profile : Advanced Simple@L5
Format settings, BVOP : 2
Format settings, QPel : No
Format settings, GMC : No warppoints
Format settings, Matrix : Default (H.263)
Muxing mode : Packed bitstream
Codec ID : XVID
Codec ID/Hint : XviD
Duration : 1h 39mn
Bit rate : 1 509 Kbps
Width : 720 pixels
Height : 288 pixels
Display aspect ratio : 2.500
Frame rate : 23.976 fps
Color space : YUV
Chroma subsampling : 4:2:0
Bit depth : 8 bits
Scan type : Progressive
Compression mode : Lossy
Bits/(Pixel*Frame) : 0.303
Stream size : 1.05 GiB (92%)
Writing library : XviD 63

Audio
ID : 1
Format : MPEG Audio
Format version : Version 1
Format profile : Layer 3
Codec ID : 55
Codec ID/Hint : MP3
Duration : 1h 39mn
Bit rate mode : Constant
Bit rate : 128 Kbps
Channel(s) : 2 channels
Sampling rate : 44.1 KHz
Compression mode : Lossy
Stream size : 91.2 MiB (8%)
Alignment : Split accross interleaves
Interleave, duration : 42 ms (1.00 video frame)
Interleave, preload duration : 500 ms



 
http://www.imdb.com/title/tt1411697/







Users: 7.1/10 (7,979 votes) 97 reviews | Critics: 22 reviews Metascore: 46/100 (based on 33 reviews from Metacritic.com)

Right after the bachelor party in Las Vegas, Phil, Stu, Alan, and Doug jet to Thailand for Stu's wedding. Stu's plan for a subdued pre-wedding brunch, however, goes seriously awry.
Director:
Todd Phillips
Writers:
Craig Mazin, Scot Armstrong, and 3 more credits »
Stars:
Bradley Cooper, Zach Galifianakis and Ed Helms

















Source Used


VIDEO:Spank My SeedBox and cinedub (IMAGiNE) ..Thanks

AUDIO:IMAGiNE & EP1C ...................................Thanks


Be warned this is v2 believe it or not their will be a V3 imo the crop on this spoils it abit .......Ran filters so enjoy !



Greetz to IMAGiNE,Flawl3ss,DiLLoN,BDK,NOiR,TOXiCiNK,THC,Ez,Rx,Boobyblue,TaRiQ786,LKRG,CrEwSaDe